<svg xmlns="http://www.w3.org/2000/svg" version="1.1" xmlns:xlink="http://www.w3.org/1999/xlink" xmlns:svgjs="http://svgjs.dev/svgjs" width="2000" height="232" viewBox="0 0 2000 232"><g transform="matrix(1,0,0,1,-1.2121212121212466,-0.2780355968498043)"><svg viewBox="0 0 396 46" data-background-color="#ffffff" preserveAspectRatio="xMidYMid meet" height="232" width="2000" xmlns="http://www.w3.org/2000/svg" xmlns:xlink="http://www.w3.org/1999/xlink"><g id="tight-bounds" transform="matrix(1,0,0,1,0.2400000000000091,0.05512774765125528)"><svg viewBox="0 0 395.52 45.889744504697504" height="45.889744504697504" width="395.52"><g><svg viewBox="0 0 472.9576070242452 54.874352113409536" height="45.889744504697504" width="395.52"><g><rect width="3.580771131634336" height="39.90501003905685" x="404.89374641789095" y="7.484671037176344" fill="#6f605b" opacity="1" stroke-width="0" stroke="transparent" fill-opacity="1" class="rect-o-0" data-fill-palette-color="primary" rx="1%" id="o-0" data-palette-color="#6f605b"></rect></g><g transform="matrix(1,0,0,1,0,7.583937231303349)"><svg viewBox="0 0 395.52000000000004 39.70647765080284" height="39.70647765080284" width="395.52000000000004"><g id="textblocktransform"><svg viewBox="0 0 395.52000000000004 39.70647765080284" height="39.70647765080284" width="395.52000000000004" id="textblock"><g><svg viewBox="0 0 395.52000000000004 39.70647765080284" height="39.70647765080284" width="395.52000000000004"><g transform="matrix(1,0,0,1,0,0)"><svg width="395.52000000000004" viewBox="1.75 -34.25 344.7799987792969 34.70000076293945" height="39.70647765080284" data-palette-color="#6f605b"><g class="undefined-text-0" data-fill-palette-color="primary" id="text-0"><path d="M18.85 0.45L18.85 0.45Q13.65 0.45 9.8-1.68 5.95-3.8 3.85-7.78 1.75-11.75 1.75-17.25L1.75-17.25Q1.75-21.35 3.08-24.53 4.4-27.7 6.8-29.85 9.2-32 12.4-33.13 15.6-34.25 19.4-34.25L19.4-34.25Q22.85-34.25 25.95-33.52 29.05-32.8 31.25-31.75L31.25-31.75Q30.95-30.05 30.83-28.1 30.7-26.15 30.7-24L30.7-24Q29.85-23.65 28.85-23.55 27.85-23.45 26.85-23.45L26.85-23.45Q26.75-26.5 25.78-28.18 24.8-29.85 23.18-30.55 21.55-31.25 19.45-31.25L19.45-31.25Q16-31.25 13.83-29.4 11.65-27.55 10.63-24.63 9.6-21.7 9.6-18.4L9.6-18.4Q9.6-14 10.78-10.45 11.95-6.9 14.2-4.85 16.45-2.8 19.65-2.8L19.65-2.8Q20.75-2.8 21.5-2.9 22.25-3 23-3.3L23-3.3Q23.75-3.6 24.2-4.33 24.65-5.05 24.65-6.95L24.65-6.95 24.65-9.05Q24.65-10.95 24.38-11.83 24.1-12.7 23.25-13.03 22.4-13.35 20.75-13.4L20.75-13.4Q20.55-14 20.48-14.8 20.4-15.6 20.4-16.5L20.4-16.5Q21.65-16.45 23.5-16.4 25.35-16.35 26.95-16.35L26.95-16.35Q28.5-16.35 30.4-16.38 32.3-16.4 33.5-16.45L33.5-16.45Q33.5-15.75 33.45-14.93 33.4-14.1 33.2-13.4L33.2-13.4Q32.3-13.35 31.83-13.05 31.35-12.75 31.23-11.93 31.1-11.1 31.1-9.45L31.1-9.45 31.1-7.75Q31.1-6.2 31.25-5.3 31.4-4.4 31.85-3.4L31.85-3.4Q29.6-1.75 26.25-0.65 22.9 0.45 18.85 0.45ZM54.4-34.1L54.4-34.1 65.85-8.35Q66.9-6.1 67.52-4.98 68.15-3.85 68.72-3.45 69.3-3.05 70.05-2.9L70.05-2.9Q70.25-2.25 70.32-1.5 70.4-0.75 70.4 0.15L70.4 0.15Q69.6 0.05 68.3 0.03 67 0 65.67 0 64.35 0 63.55 0L63.55 0Q62.95 0 61.95 0 60.95 0 59.85 0.03 58.75 0.05 57.77 0.08 56.8 0.1 56.25 0.15L56.25 0.15Q56.25-0.85 56.35-1.58 56.45-2.3 56.65-2.9L56.65-2.9Q58.5-3.25 58.85-4 59.2-4.75 58.3-6.75L58.3-6.75 53.1-18.85Q52.05-21.15 51.4-23.1 50.75-25.05 50.2-27.15L50.2-27.15 51.3-27.15Q50.7-25 50.05-22.98 49.4-20.95 48.55-18.85L48.55-18.85 44.15-7.5Q43.4-5.5 43.8-4.3 44.2-3.1 46-2.9L46-2.9Q46.2-2.3 46.27-1.53 46.35-0.75 46.35 0.15L46.35 0.15Q45.8 0.1 44.87 0.08 43.95 0.05 42.92 0.03 41.9 0 41.05 0L41.05 0Q39.8 0 38.55 0.03 37.3 0.05 36.55 0.15L36.55 0.15Q36.55-0.7 36.65-1.45 36.75-2.2 37-2.9L37-2.9Q37.85-3.05 38.45-3.53 39.05-4 39.62-5.1 40.2-6.2 41-8.1L41-8.1 51.45-33.85Q52.25-34.05 52.87-34.08 53.5-34.1 54.4-34.1ZM44.5-12.35L57.05-12.35 57.8-9.6Q54.45-9.6 50.77-9.5 47.1-9.4 43.7-9.15L43.7-9.15 44.5-12.35ZM88.75-3.05L89.34-3.05Q91.55-3.05 92.95-3.7 94.34-4.35 95.27-5.8 96.2-7.25 96.9-9.6L96.9-9.6Q98.15-9.4 99.09-9.03 100.05-8.65 100.65-8.15L100.65-8.15Q100.09-6.45 99.7-4.23 99.3-2 99.09 0.1L99.09 0.1Q97.84 0.05 95.92 0.05 94 0.05 91.8 0.03 89.59 0 87.65 0L87.65 0Q86.3 0 84.25 0.03 82.2 0.05 80.05 0.08 77.9 0.1 76.07 0.13 74.25 0.15 73.34 0.15L73.34 0.15Q73.34-0.75 73.42-1.55 73.5-2.35 73.7-2.9L73.7-2.9Q75.05-3 75.77-3.43 76.5-3.85 76.8-4.95 77.09-6.05 77.09-8.2L77.09-8.2 77.09-25.95Q77.09-27.9 76.82-28.93 76.55-29.95 75.8-30.35 75.05-30.75 73.7-30.9L73.7-30.9Q73.5-31.45 73.45-32.35 73.4-33.25 73.4-33.95L73.4-33.95Q74.7-33.9 75.9-33.88 77.09-33.85 78.32-33.83 79.55-33.8 80.84-33.8L80.84-33.8Q82-33.8 83.32-33.83 84.65-33.85 85.95-33.88 87.25-33.9 88.25-33.95L88.25-33.95Q88.25-33.1 88.2-32.3 88.15-31.5 87.9-30.9L87.9-30.9Q86.59-30.8 85.84-30.38 85.09-29.95 84.82-28.93 84.55-27.9 84.55-25.85L84.55-25.85 84.55-8.3Q84.55-6.2 84.9-5.08 85.25-3.95 86.17-3.5 87.09-3.05 88.75-3.05L88.75-3.05ZM118.84-3.05L119.44-3.05Q121.64-3.05 123.04-3.7 124.44-4.35 125.37-5.8 126.29-7.25 126.99-9.6L126.99-9.6Q128.24-9.4 129.19-9.03 130.14-8.65 130.74-8.15L130.74-8.15Q130.19-6.45 129.79-4.23 129.39-2 129.19 0.1L129.19 0.1Q127.94 0.05 126.02 0.05 124.09 0.05 121.89 0.03 119.69 0 117.74 0L117.74 0Q116.39 0 114.34 0.03 112.29 0.05 110.14 0.08 107.99 0.1 106.17 0.13 104.34 0.15 103.44 0.15L103.44 0.15Q103.44-0.75 103.52-1.55 103.59-2.35 103.79-2.9L103.79-2.9Q105.14-3 105.87-3.43 106.59-3.85 106.89-4.95 107.19-6.05 107.19-8.2L107.19-8.2 107.19-25.95Q107.19-27.9 106.92-28.93 106.64-29.95 105.89-30.35 105.14-30.75 103.79-30.9L103.79-30.9Q103.59-31.45 103.54-32.35 103.49-33.25 103.49-33.95L103.49-33.95Q104.79-33.9 105.99-33.88 107.19-33.85 108.42-33.83 109.64-33.8 110.94-33.8L110.94-33.8Q112.09-33.8 113.42-33.83 114.74-33.85 116.04-33.88 117.34-33.9 118.34-33.95L118.34-33.95Q118.34-33.1 118.29-32.3 118.24-31.5 117.99-30.9L117.99-30.9Q116.69-30.8 115.94-30.38 115.19-29.95 114.92-28.93 114.64-27.9 114.64-25.85L114.64-25.85 114.64-8.3Q114.64-6.2 114.99-5.08 115.34-3.95 116.27-3.5 117.19-3.05 118.84-3.05L118.84-3.05ZM150.14-34.1L150.14-34.1 161.59-8.35Q162.64-6.1 163.26-4.98 163.89-3.85 164.47-3.45 165.04-3.05 165.79-2.9L165.79-2.9Q165.99-2.25 166.06-1.5 166.14-0.75 166.14 0.15L166.14 0.15Q165.34 0.05 164.04 0.03 162.74 0 161.41 0 160.09 0 159.29 0L159.29 0Q158.69 0 157.69 0 156.69 0 155.59 0.03 154.49 0.05 153.51 0.08 152.54 0.1 151.99 0.15L151.99 0.15Q151.99-0.85 152.09-1.58 152.19-2.3 152.39-2.9L152.39-2.9Q154.24-3.25 154.59-4 154.94-4.75 154.04-6.75L154.04-6.75 148.84-18.85Q147.79-21.15 147.14-23.1 146.49-25.05 145.94-27.15L145.94-27.15 147.04-27.15Q146.44-25 145.79-22.98 145.14-20.95 144.29-18.85L144.29-18.85 139.89-7.5Q139.14-5.5 139.54-4.3 139.94-3.1 141.74-2.9L141.74-2.9Q141.94-2.3 142.01-1.53 142.09-0.75 142.09 0.15L142.09 0.15Q141.54 0.1 140.62 0.08 139.69 0.05 138.66 0.03 137.64 0 136.79 0L136.79 0Q135.54 0 134.29 0.03 133.04 0.05 132.29 0.15L132.29 0.15Q132.29-0.7 132.39-1.45 132.49-2.2 132.74-2.9L132.74-2.9Q133.59-3.05 134.19-3.53 134.79-4 135.37-5.1 135.94-6.2 136.74-8.1L136.74-8.1 147.19-33.85Q147.99-34.05 148.62-34.08 149.24-34.1 150.14-34.1ZM140.24-12.35L152.79-12.35 153.54-9.6Q150.19-9.6 146.51-9.5 142.84-9.4 139.44-9.15L139.44-9.15 140.24-12.35ZM169.09-33.95L169.09-33.95Q170.09-33.9 171.54-33.88 172.99-33.85 174.61-33.83 176.24-33.8 177.74-33.8 179.24-33.8 180.29-33.8L180.29-33.8 180.29-8.3Q180.29-6.2 180.64-5.08 180.99-3.95 181.91-3.5 182.84-3.05 184.49-3.05L184.49-3.05 183.39 0Q182.04 0 179.99 0.03 177.94 0.05 175.79 0.08 173.64 0.1 171.81 0.13 169.99 0.15 169.09 0.15L169.09 0.15Q169.09-0.75 169.16-1.55 169.24-2.35 169.44-2.9L169.44-2.9Q170.79-3 171.51-3.43 172.24-3.85 172.51-4.95 172.79-6.05 172.79-8.2L172.79-8.2 172.79-25.95Q172.79-27.9 172.51-28.93 172.24-29.95 171.51-30.35 170.79-30.75 169.39-30.9L169.39-30.9Q169.24-31.45 169.16-32.35 169.09-33.25 169.09-33.95ZM193.14-9.6L193.14-9.6Q194.34-9.4 195.31-9.03 196.29-8.65 196.84-8.15L196.84-8.15Q196.29-6.45 195.91-4.23 195.54-2 195.29 0.1L195.29 0.1Q194.09 0.05 192.11 0.05 190.14 0.05 187.86 0.03 185.59 0 183.39 0L183.39 0 184.49-3.05 185.09-3.05Q187.69-3.05 189.19-3.75 190.69-4.45 191.56-5.9 192.44-7.35 193.14-9.6ZM190.04-22.7L190.04-22.7Q189.99-21.45 189.94-20.05 189.89-18.65 189.89-17L189.89-17Q189.89-15.3 189.94-13.83 189.99-12.35 190.04-11.15L190.04-11.15Q188.99-11.15 188.19-11.23 187.39-11.3 186.69-11.55L186.69-11.55Q186.49-13.85 185.46-14.65 184.44-15.45 181.79-15.45L181.79-15.45 178.59-15.45 178.59-18.4 181.79-18.4Q184.59-18.4 185.56-19.2 186.54-20 186.59-22.2L186.59-22.2Q187.34-22.5 188.24-22.6 189.14-22.7 190.04-22.7ZM193.94-33.95L193.94-33.95Q194.04-32.75 194.16-31.2 194.29-29.65 194.51-28.18 194.74-26.7 194.99-25.55L194.99-25.55Q194.34-25.2 193.44-24.98 192.54-24.75 191.29-24.75L191.29-24.75Q191.09-26.45 190.41-27.83 189.74-29.2 188.19-30.05 186.64-30.9 183.79-30.9L183.79-30.9 178.64-30.9 180.04-33.8Q183.84-33.8 186.54-33.83 189.24-33.85 191.04-33.88 192.84-33.9 193.94-33.95ZM216.53 0.45L216.53 0.45Q211.59 0.45 207.86-1.78 204.13-4 202.03-7.95 199.94-11.9 199.94-17.1L199.94-17.1Q199.94-21.35 201.34-24.58 202.74-27.8 205.13-29.95 207.53-32.1 210.59-33.18 213.63-34.25 216.88-34.25L216.88-34.25Q219.84-34.25 222.56-33.58 225.28-32.9 227.94-31.65L227.94-31.65Q227.63-29.95 227.51-27.95 227.38-25.95 227.38-23.9L227.38-23.9Q226.74-23.6 225.63-23.45 224.53-23.3 223.53-23.3L223.53-23.3Q223.49-26.35 222.69-28.1 221.88-29.85 220.49-30.55 219.09-31.25 217.19-31.25L217.19-31.25Q214.63-31.25 212.84-30.18 211.03-29.1 209.94-27.3 208.84-25.5 208.31-23.2 207.78-20.9 207.78-18.4L207.78-18.4Q207.78-14.2 209.06-10.8 210.34-7.4 212.84-5.43 215.34-3.45 219.03-3.45L219.03-3.45Q221.09-3.45 223.26-4.1 225.44-4.75 227.49-5.95L227.49-5.95Q227.88-5.6 228.21-5 228.53-4.4 228.63-3.8L228.63-3.8Q226.28-1.9 223.36-0.73 220.44 0.45 216.53 0.45ZM236.13-7.9L236.13-25.95Q236.13-27.9 235.88-28.93 235.63-29.95 234.91-30.35 234.18-30.75 232.83-30.9L232.83-30.9Q232.63-31.45 232.53-32.3 232.43-33.15 232.43-33.95L232.43-33.95Q233.33-33.9 234.66-33.88 235.98-33.85 237.43-33.83 238.88-33.8 240.03-33.8L240.03-33.8Q241.18-33.8 242.48-33.83 243.78-33.85 245.06-33.88 246.33-33.9 247.33-33.95L247.33-33.95Q247.33-33.1 247.28-32.35 247.23-31.6 246.98-30.9L246.98-30.9Q245.63-30.8 244.91-30.38 244.18-29.95 243.91-28.93 243.63-27.9 243.63-25.95L243.63-25.95 243.63-7.9Q243.63-5.95 243.91-4.88 244.18-3.8 244.93-3.4 245.68-3 246.98-2.9L246.98-2.9Q247.18-2.4 247.26-1.55 247.33-0.7 247.33 0.15L247.33 0.15Q246.03 0.05 244.18 0.03 242.33 0 240.28 0L240.28 0Q238.23 0 236.11 0.03 233.98 0.05 232.43 0.15L232.43 0.15Q232.43-0.65 232.56-1.5 232.68-2.35 232.83-2.9L232.83-2.9Q234.18-3 234.91-3.4 235.63-3.8 235.88-4.88 236.13-5.95 236.13-7.9L236.13-7.9ZM268.13-34.1L268.13-34.1 279.58-8.35Q280.63-6.1 281.25-4.98 281.88-3.85 282.45-3.45 283.03-3.05 283.78-2.9L283.78-2.9Q283.98-2.25 284.06-1.5 284.13-0.75 284.13 0.15L284.13 0.15Q283.33 0.05 282.03 0.03 280.73 0 279.41 0 278.08 0 277.28 0L277.28 0Q276.68 0 275.68 0 274.68 0 273.58 0.03 272.48 0.05 271.5 0.08 270.53 0.1 269.98 0.15L269.98 0.15Q269.98-0.85 270.08-1.58 270.18-2.3 270.38-2.9L270.38-2.9Q272.23-3.25 272.58-4 272.93-4.75 272.03-6.75L272.03-6.75 266.83-18.85Q265.78-21.15 265.13-23.1 264.48-25.05 263.93-27.15L263.93-27.15 265.03-27.15Q264.43-25 263.78-22.98 263.13-20.95 262.28-18.85L262.28-18.85 257.88-7.5Q257.13-5.5 257.53-4.3 257.93-3.1 259.73-2.9L259.73-2.9Q259.93-2.3 260-1.53 260.08-0.75 260.08 0.15L260.08 0.15Q259.53 0.1 258.61 0.08 257.68 0.05 256.66 0.03 255.63 0 254.78 0L254.78 0Q253.53 0 252.28 0.03 251.03 0.05 250.28 0.15L250.28 0.15Q250.28-0.7 250.38-1.45 250.48-2.2 250.73-2.9L250.73-2.9Q251.58-3.05 252.18-3.53 252.78-4 253.36-5.1 253.93-6.2 254.73-8.1L254.73-8.1 265.18-33.85Q265.98-34.05 266.61-34.08 267.23-34.1 268.13-34.1ZM258.23-12.35L270.78-12.35 271.53-9.6Q268.18-9.6 264.5-9.5 260.83-9.4 257.43-9.15L257.43-9.15 258.23-12.35Z" fill="#6f605b" data-fill-palette-color="primary"></path><path d="M286.23 0.15L286.23 0.15Q286.23-0.9 286.31-1.63 286.38-2.35 286.53-2.9L286.53-2.9Q287.88-3 288.63-3.4 289.38-3.8 289.66-4.88 289.93-5.95 289.93-7.9L289.93-7.9 289.93-25.95Q289.93-27.9 289.68-28.93 289.43-29.95 288.71-30.35 287.98-30.75 286.63-30.9L286.63-30.9Q286.43-31.45 286.33-32.23 286.23-33 286.23-33.95L286.23-33.95Q288.43-33.9 290.36-33.85 292.28-33.8 293.78-33.8L293.78-33.8Q294.93-33.8 296.58-33.83 298.23-33.85 299.73-33.88 301.23-33.9 301.93-33.9L301.93-33.9Q306.68-33.9 309.38-32.55 312.08-31.2 313.21-28.93 314.33-26.65 314.33-23.8L314.33-23.8Q314.33-20.45 312.96-17.7 311.58-14.95 308.93-13.3 306.28-11.65 302.33-11.65L302.33-11.65Q300.23-11.65 298.88-12.2L298.88-12.2Q298.73-13 298.81-13.73 298.88-14.45 299.13-15.05L299.13-15.05Q299.58-14.95 300.06-14.9 300.53-14.85 300.98-14.85L300.98-14.85Q302.43-14.85 303.71-15.53 304.98-16.2 305.78-17.82 306.58-19.45 306.58-22.35L306.58-22.35Q306.58-26.1 304.93-28.45 303.28-30.8 299.68-30.8L299.68-30.8Q299.08-30.8 298.41-30.7 297.73-30.6 296.83-30.3L296.83-30.3 297.43-31.1 297.43-8.65Q297.43-6.5 297.91-5.3 298.38-4.1 299.46-3.58 300.53-3.05 302.38-2.9L302.38-2.9Q302.63-2.3 302.68-1.5 302.73-0.7 302.73 0.15L302.73 0.15Q301.88 0.1 300.56 0.08 299.23 0.05 297.71 0.03 296.18 0 294.68 0L294.68 0Q293.28 0 291.66 0.03 290.03 0.05 288.61 0.08 287.18 0.1 286.23 0.15ZM334.43 0.45L334.43 0.45Q329.48 0.45 325.75-1.78 322.03-4 319.93-7.95 317.83-11.9 317.83-17.1L317.83-17.1Q317.83-21.35 319.23-24.58 320.63-27.8 323.03-29.95 325.43-32.1 328.48-33.18 331.53-34.25 334.78-34.25L334.78-34.25Q337.73-34.25 340.45-33.58 343.18-32.9 345.83-31.65L345.83-31.65Q345.53-29.95 345.4-27.95 345.28-25.95 345.28-23.9L345.28-23.9Q344.63-23.6 343.53-23.45 342.43-23.3 341.43-23.3L341.43-23.3Q341.38-26.35 340.58-28.1 339.78-29.85 338.38-30.55 336.98-31.25 335.08-31.25L335.08-31.25Q332.53-31.25 330.73-30.18 328.93-29.1 327.83-27.3 326.73-25.5 326.2-23.2 325.68-20.9 325.68-18.4L325.68-18.4Q325.68-14.2 326.95-10.8 328.23-7.4 330.73-5.43 333.23-3.45 336.93-3.45L336.93-3.45Q338.98-3.45 341.15-4.1 343.33-4.75 345.38-5.95L345.38-5.95Q345.78-5.6 346.1-5 346.43-4.4 346.53-3.8L346.53-3.8Q344.18-1.9 341.25-0.73 338.33 0.45 334.43 0.45Z" fill="#f36527" data-fill-palette-color="secondary"></path></g></svg></g></svg></g></svg></g></svg></g><g transform="matrix(1,0,0,1,417.8482639674162,0)"><svg viewBox="0 0 55.10934305682896 54.874352113409536" height="54.874352113409536" width="55.10934305682896"><g><svg version="1.1" xmlns="http://www.w3.org/2000/svg" xmlns:xlink="http://www.w3.org/1999/xlink" x="0" y="0" viewBox="0.18443012237548828 0.5609999895095825 100.42723083496094 99.9990005493164" enable-background="new 0.184 0.561 100.426 100" xml:space="preserve" width="55.10934305682896" height="54.874352113409536" class="icon-icon-0" data-fill-palette-color="accent" id="icon-0"><g fill="#f36527" data-fill-palette-color="accent"><path d="M92.742 54.084L76.597 37.715c-5.172-5.244-12.072-8.132-19.438-8.132-5.563 0-10.875 1.672-15.374 4.756-1.022-2.328-2.681-4.996-5.482-7.141-4.466-3.416-10.389-4.548-17.593-3.334-3.848 0.644-8.75 0.405-10.371-4.349C6.83 15.106 8.926 9.403 12.822 7.312L9.195 0.561C2.012 4.419-1.631 14.033 1.083 21.994c2.544 7.448 9.595 10.974 18.886 9.431 5-0.832 8.906-0.226 11.616 1.816 3.04 2.287 3.878 5.864 4.061 6.878-3.698 4.723-5.744 10.482-5.79 16.583-0.052 7.289 2.743 14.169 7.867 19.363l16.145 16.37c5.171 5.24 12.072 8.125 19.437 8.125 7.224 0 14.033-2.792 19.176-7.862 5.191-5.122 8.076-11.956 8.13-19.251C100.661 66.153 97.869 59.274 92.742 54.084zM69.292 41.557l-12.45 12.28L44.862 41.692c3.488-2.829 7.755-4.446 12.297-4.446C61.643 37.247 65.838 38.81 69.292 41.557zM37.518 56.752c0.034-4.596 1.71-8.885 4.619-12.37l11.975 12.143L41.659 68.81C38.993 65.356 37.49 61.183 37.518 56.752zM87.098 87.242c-3.702 3.649-8.599 5.654-13.794 5.654-5.294 0-10.262-2.073-13.981-5.845L44.857 72.384l27.967-27.585 14.461 14.667c3.687 3.734 5.696 8.683 5.66 13.93C92.906 78.639 90.832 83.556 87.098 87.242z" fill="#f36527" data-fill-palette-color="accent"></path></g></svg></g></svg></g></svg></g><defs></defs></svg><rect width="395.52" height="45.889744504697504" fill="none" stroke="none" visibility="hidden"></rect></g></svg></g></svg>