<svg xmlns="http://www.w3.org/2000/svg" version="1.1" xmlns:xlink="http://www.w3.org/1999/xlink" xmlns:svgjs="http://svgjs.dev/svgjs" width="128" height="128" viewBox="0 0 128 128"><g transform="matrix(0.8046875,0,0,0.8046875,12.760752631578946,12.540040382790906)"><svg viewBox="0 0 95 95" data-background-color="#ffffff" preserveAspectRatio="xMidYMid meet" height="128" width="128" xmlns="http://www.w3.org/2000/svg" xmlns:xlink="http://www.w3.org/1999/xlink"><g id="tight-bounds" transform="matrix(1,0,0,1,-0.24049999999999727,-0.036930450146954286)"><svg viewBox="0 0 95.481 95.07386090029392" height="95.07386090029392" width="95.481"><g><svg viewBox="0 0 95.481 95.07386090029392" height="95.07386090029392" width="95.481"><g><svg viewBox="0 0 95.481 95.07386090029392" height="95.07386090029392" width="95.481"><g id="textblocktransform"><svg viewBox="0 0 95.481 95.07386090029392" height="95.07386090029392" width="95.481" id="textblock"><g><svg viewBox="0 0 95.481 95.07386090029392" height="95.07386090029392" width="95.481"><g><svg viewBox="0 0 95.481 95.07386090029392" height="95.07386090029392" width="95.481"><g><svg version="1.1" xmlns="http://www.w3.org/2000/svg" xmlns:xlink="http://www.w3.org/1999/xlink" x="0" y="0" viewBox="0.18442984627781733 0.561 100.42723024589486 99.999" enable-background="new 0.184 0.561 100.426 100" xml:space="preserve" width="95.481" height="95.07386090029392" class="icon-icon-0" data-fill-palette-color="accent" id="icon-0"><g fill="#f36527" data-fill-palette-color="accent"><path d="M92.742 54.084L76.597 37.715c-5.172-5.244-12.072-8.132-19.438-8.132-5.563 0-10.875 1.672-15.374 4.756-1.022-2.328-2.681-4.996-5.482-7.141-4.466-3.416-10.389-4.548-17.593-3.334-3.848 0.644-8.75 0.405-10.371-4.349C6.83 15.106 8.926 9.403 12.822 7.312L9.195 0.561C2.012 4.419-1.631 14.033 1.083 21.994c2.544 7.448 9.595 10.974 18.886 9.431 5-0.832 8.906-0.226 11.616 1.816 3.04 2.287 3.878 5.864 4.061 6.878-3.698 4.723-5.744 10.482-5.79 16.583-0.052 7.289 2.743 14.169 7.867 19.363l16.145 16.37c5.171 5.24 12.072 8.125 19.437 8.125 7.224 0 14.033-2.792 19.176-7.862 5.191-5.122 8.076-11.956 8.13-19.251C100.661 66.153 97.869 59.274 92.742 54.084zM69.292 41.557l-12.45 12.28L44.862 41.692c3.488-2.829 7.755-4.446 12.297-4.446C61.643 37.247 65.838 38.81 69.292 41.557zM37.518 56.752c0.034-4.596 1.71-8.885 4.619-12.37l11.975 12.143L41.659 68.81C38.993 65.356 37.49 61.183 37.518 56.752zM87.098 87.242c-3.702 3.649-8.599 5.654-13.794 5.654-5.294 0-10.262-2.073-13.981-5.845L44.857 72.384l27.967-27.585 14.461 14.667c3.687 3.734 5.696 8.683 5.66 13.93C92.906 78.639 90.832 83.556 87.098 87.242z" fill="#f36527" data-fill-palette-color="accent"></path></g></svg></g></svg></g></svg></g></svg></g></svg></g></svg></g><defs></defs></svg><rect width="95.481" height="95.07386090029392" fill="none" stroke="none" visibility="hidden"></rect></g></svg></g></svg>